Coordinates
version=1
nRows=24
nColumns=24
inDegrees=yes

Units are S.I. units (second, meters, Newtons, ...)
Angles are in degrees.

endheader
time	pelvis_tilt	pelvis_list	pelvis_rotation	pelvis_tx	pelvis_ty	pelvis_tz	hip_flexion_r	hip_adduction_r	hip_rotation_r	knee_angle_r	ankle_angle_r	subtalar_angle_r	mtp_angle_r	hip_flexion_l	hip_adduction_l	hip_rotation_l	knee_angle_l	ankle_angle_l	subtalar_angle_l	mtp_angle_l	lumbar_extension	lumbar_bending	lumbar_rotation
      5.62000000	     36.76664673	      2.19874944	      0.52180887	      0.46466285	      0.67371549	     -0.29630121	    -25.61050890	     -5.77096493	    -10.35309733	    -66.67206325	      5.05845212	      5.06148554	      0.00000000	    -27.37609368	      5.23880087	     -4.40515671	    -16.92174180	     15.15300475	     10.92292947	      0.00000000	    -61.87243134	     -1.20208657	     -1.41581061
      5.62500000	     36.67680373	      2.08932541	      0.72006354	      0.46950991	      0.67398132	     -0.29646984	    -24.47088600	     -5.56145657	    -10.31426798	    -67.13710384	      6.11897303	      4.22902164	      0.00000000	    -27.80993503	      5.11423730	     -3.92180486	    -16.82319353	     15.55065099	     10.51542867	      0.00000000	    -61.82923947	     -0.95613373	     -1.40022157
      5.63000000	     36.74266364	      1.97847444	      0.88687285	      0.47446252	      0.67431627	     -0.29656076	    -23.58114664	     -5.36613516	    -10.28294220	    -67.40756738	      7.26540648	      3.72457854	      0.00000000	    -28.47595579	      4.96545179	     -3.62750469	    -16.62848709	     15.95695363	     10.39216823	      0.00000000	    -61.91592076	     -0.73740839	     -1.47426347
      5.63500000	     36.78613731	      1.86561475	      1.05870221	      0.47936677	      0.67460303	     -0.29664440	    -22.68000585	     -5.16928472	    -10.27287567	    -67.56642389	      8.29906081	      3.23641433	      0.00000000	    -29.08844999	      4.80819688	     -3.30085853	    -16.47938524	     16.36905634	     10.23843879	      0.00000000	    -62.00003577	     -0.52703195	     -1.50695449
      5.64000000	     36.81232265	      1.76220524	      1.24486703	      0.48423854	      0.67484336	     -0.29672432	    -21.77963524	     -4.96792080	    -10.27095594	    -67.61228063	      9.24351067	      2.80889173	      0.00000000	    -29.66270354	      4.64361758	     -2.98211156	    -16.35904241	     16.77067082	     10.09036266	      0.00000000	    -62.07380102	     -0.31145144	     -1.53661493
      5.64500000	     36.69553976	      1.66419919	      1.57519019	      0.48905826	      0.67498264	     -0.29696356	    -20.76006609	     -4.73583032	    -10.41505176	    -67.54040120	     10.04788024	      2.45040494	      0.00000000	    -29.99825787	      4.41955327	     -2.47731132	    -16.38610082	     17.22672075	      9.90047258	      0.00000000	    -62.02265256	      0.02520515	     -1.57220693
      5.65000000	     36.72790611	      1.60196911	      1.71297680	      0.49390859	      0.67515466	     -0.29697718	    -19.91416626	     -4.60178272	    -10.40686035	    -67.36511178	     10.88751260	      2.14650581	      0.00000000	    -30.56945864	      4.29410592	     -2.26576478	    -16.27547099	     17.57105555	      9.83825262	      0.00000000	    -62.11308875	      0.17048168	     -1.67518201
      5.65500000	     36.73832687	      1.53594873	      1.87882490	      0.49873576	      0.67528951	     -0.29700631	    -19.07917073	     -4.44919446	    -10.41960046	    -67.06091208	     11.65582638	      1.90814922	      0.00000000	    -31.09318310	      4.14371930	     -2.04205457	    -16.20548908	     17.94476079	      9.80621018	      0.00000000	    -62.19270249	      0.34133576	     -1.72462386
      5.66000000	     36.67452689	      1.46705981	      2.20485543	      0.50356023	      0.67537772	     -0.29718262	    -18.23436380	     -4.25719715	    -10.60610289	    -66.60559404	     12.32863021	      1.77885690	      0.00000000	    -31.48547046	      3.89688217	     -1.71170729	    -16.22898207	     18.39475548	      9.90953532	      0.00000000	    -62.19998968	      0.64741006	     -1.79999223
      5.66500000	     36.65703381	      1.43907502	      2.42954217	      0.50833174	      0.67544443	     -0.29726726	    -17.44967078	     -4.14273079	    -10.72161138	    -66.05782549	     12.98134287	      1.60110819	      0.00000000	    -31.94431916	      3.73364111	     -1.49969201	    -16.20905015	     18.76057290	      9.97264920	      0.00000000	    -62.26720019	      0.84670293	     -1.91235687
      5.67000000	     36.64911696	      1.42538703	      2.56579666	      0.51312298	      0.67548306	     -0.29722461	    -16.69005007	     -4.05212947	    -10.73566012	    -65.41547781	     13.58143484	      1.41628903	      0.00000000	    -32.43359063	      3.62143943	     -1.35335443	    -16.15375152	     19.07093519	      9.99710582	      0.00000000	    -62.34400773	      0.93406511	     -1.98574480
      5.67500000	     36.61789292	      1.38656968	      2.83408469	      0.51790053	      0.67552032	     -0.29733048	    -15.98709588	     -3.91416129	    -10.90495128	    -64.59430192	     14.10968003	      1.29997152	      0.00000000	    -32.86950759	      3.40158193	     -1.17647774	    -16.14585788	     19.45990483	     10.24836298	      0.00000000	    -62.39824641	      1.18128905	     -2.06746833
      5.68000000	     36.59400049	      1.41199778	      2.92927363	      0.52268075	      0.67548965	     -0.29727511	    -15.28252328	     -3.88539486	    -10.90932036	    -63.72803503	     14.62751912	      1.10525119	      0.00000000	    -33.34336098	      3.34271593	     -1.07024853	    -16.08543725	     19.72675861	     10.28276662	      0.00000000	    -62.45849583	      1.22548106	     -2.14354729
      5.68500000	     36.57577984	      1.41011141	      3.25440535	      0.52746391	      0.67551855	     -0.29732792	    -14.71057145	     -3.74963150	    -11.14853303	    -62.62741614	     15.03098874	      0.94037006	      0.00000000	    -33.80023746	      3.09335200	     -0.93524294	    -16.05745341	     20.10591627	     10.66014269	      0.00000000	    -62.53319032	      1.46194724	     -2.27146903
      5.69000000	     36.58078127	      1.44958325	      3.47910492	      0.53222766	      0.67550917	     -0.29733704	    -14.18646603	     -3.69397576	    -11.32099497	    -61.44072605	     15.44993932	      0.71541098	      0.00000000	    -34.29895392	      2.94832103	     -0.83958570	    -16.00106782	     20.37077577	     10.85928087	      0.00000000	    -62.63524478	      1.59974536	     -2.41719115
      5.69500000	     36.59384833	      1.50363475	      3.70495441	      0.53701490	      0.67548589	     -0.29735933	    -13.72394583	     -3.65866066	    -11.51216855	    -60.13156089	     15.78387378	      0.48671000	      0.00000000	    -34.83058478	      2.80989426	     -0.72980422	    -15.89868357	     20.65209157	     11.11475793	      0.00000000	    -62.73781292	      1.74409984	     -2.54992105
      5.70000000	     36.50677943	      1.59960024	      3.73738659	      0.54173208	      0.67531075	     -0.29729685	    -13.11162004	     -3.74442078	    -11.53187220	    -58.82207646	     16.17401921	      0.28680777	      0.00000000	    -35.25841364	      2.85243759	     -0.70190641	    -15.78034381	     20.82858181	     11.13028265	      0.00000000	    -62.76879861	      1.70010992	     -2.60127129
      5.70500000	     36.52970667	      1.65810952	      4.06660976	      0.54656418	      0.67530953	     -0.29731900	    -12.81829595	     -3.66282748	    -11.84666927	    -57.18942027	     16.36771461	     -0.03214982	      0.00000000	    -35.80726928	      2.62441152	     -0.65808362	    -15.66982505	     21.12482897	     11.58649258	      0.00000000	    -62.87053075	      1.91110746	     -2.78733315
      5.71000000	     36.53949983	      1.75745022	      4.25712706	      0.55131308	      0.67524032	     -0.29728233	    -12.51301976	     -3.67688131	    -12.05809491	    -55.49898261	     16.66069181	     -0.27297056	      0.00000000	    -36.34589062	      2.53737418	     -0.62361628	    -15.54484634	     21.23410260	     11.75444404	      0.00000000	    -62.99670624	      1.98933499	     -2.96829692
      5.71500000	     36.57098298	      1.89631039	      4.49246203	      0.55616200	      0.67514932	     -0.29733971	    -12.31902672	     -3.73552803	    -12.36696124	    -53.67803343	     16.84338547	     -0.52786012	      0.00000000	    -36.94863531	      2.45571472	     -0.55447237	    -15.35950846	     21.46347847	     12.02285108	      0.00000000	    -63.09708239	      2.09838961	     -3.13437260
      5.72000000	     36.56630462	      2.04064741	      4.68620891	      0.56098220	      0.67502227	     -0.29736517	    -12.12657389	     -3.81224514	    -12.65620897	    -51.74751734	     17.04138580	     -0.73556172	      0.00000000	    -37.50687021	      2.40729861	     -0.52535379	    -15.18229887	     21.59889010	     12.21679855	      0.00000000	    -63.18319506	      2.16539305	     -3.31919778
      5.72500000	     36.52558955	      2.20085922	      4.85943036	      0.56581503	      0.67484952	     -0.29737698	    -11.94672106	     -3.91618367	    -12.96591770	    -49.70922735	     17.21580441	     -0.91000568	      0.00000000	    -38.02876148	      2.38597941	     -0.51956167	    -15.00488117	     21.72125706	     12.41586032	      0.00000000	    -63.23221416	      2.21066700	     -3.50339617
      5.73000000	     36.48821784	      2.37948163	      5.04632108	      0.57066620	      0.67466131	     -0.29741234	    -11.84457063	     -4.03831358	    -13.34045356	    -47.54071399	     17.37293292	     -1.02744434	      0.00000000	    -38.55948475	      2.37030431	     -0.50520617	    -14.82329267	     21.82926748	     12.61351775	      0.00000000	    -63.28223954	      2.25826370	     -3.71009875
      5.73500000	     36.48571020	      2.59982040	      5.26614779	      0.57551079	      0.67446898	     -0.29745056	    -11.86460329	     -4.18205939	    -13.79100125	    -45.23629943	     17.55695540	     -1.08987441	      0.00000000	    -39.12384509	      2.36087203	     -0.42323763	    -14.65596692	     21.92465377	     12.80179518	      0.00000000	    -63.37150935	      2.30024757	     -3.91772912
